<?xml version="1.0" encoding="utf-8"?>
<!-- Generator: Adobe Illustrator 21.0.2, SVG Export Plug-In . SVG Version: 6.00 Build 0)  -->
<svg version="1.1" xmlns="http://www.w3.org/2000/svg" xmlns:xlink="http://www.w3.org/1999/xlink" x="0px" y="0px"
	 viewBox="0 0 900 600" style="enable-background:new 0 0 900 600;" xml:space="preserve">
<style type="text/css">
	.st0{fill:#231F20;}
	.st1{fill:#A6A8AB;}
	.st2{fill:none;stroke:#231F20;stroke-miterlimit:10;}
	.st3{fill:#00A69C;stroke:#231F20;stroke-miterlimit:10;}
	.st4{opacity:0.5;}
	.st5{fill:url(#SVGID_1_);stroke:#000000;stroke-miterlimit:10;}
</style>
<g id="Locked_Layer">
	<g>
		<g>
			<path class="st0" d="M423,517H266v-98h157V517z M267,516h155v-96H267V516z"/>
		</g>
		<g>
			<path class="st0" d="M311,431h-34v-25h34V431z M278,430h32v-23h-32V430z"/>
		</g>
		<g>
			<path class="st0" d="M394.1,449.6c-6.3,0-11.5-5.2-11.5-11.5s5.2-11.5,11.5-11.5s11.5,5.2,11.5,11.5S400.4,449.6,394.1,449.6z
				 M394.1,427.6c-5.8,0-10.5,4.7-10.5,10.5s4.7,10.5,10.5,10.5s10.5-4.7,10.5-10.5S399.9,427.6,394.1,427.6z"/>
		</g>
		<g>
			<path class="st0" d="M344.5,499.3c-17.3,0-31.3-14-31.3-31.3c0-17.3,14-31.3,31.3-31.3s31.3,14,31.3,31.3
				C375.8,485.3,361.8,499.3,344.5,499.3z M344.5,437.7c-16.7,0-30.3,13.6-30.3,30.3c0,16.7,13.6,30.3,30.3,30.3
				c16.7,0,30.3-13.6,30.3-30.3C374.8,451.3,361.2,437.7,344.5,437.7z"/>
		</g>
	</g>
	<g>
		<g>
			<g>
				<polygon class="st1" points="212,517 209,517 209,516 211,516 211,515 212,515 				"/>
			</g>
			<g>
				<path class="st1" d="M206,517h-4v-1h4V517z M198,517h-4v-1h4V517z M190,517h-4v-1h4V517z M182,517h-4v-1h4V517z M174,517h-4v-1
					h4V517z M166,517h-4v-1h4V517z M158,517h-4v-1h4V517z M150,517h-4v-1h4V517z M142,517h-4v-1h4V517z M134,517h-4v-1h4V517z
					 M126,517h-4v-1h4V517z M118,517h-4v-1h4V517z M110,517h-4v-1h4V517z M102,517h-4v-1h4V517z M94,517h-4v-1h4V517z M86,517h-4v-1
					h4V517z M78,517h-4v-1h4V517z M70,517h-4v-1h4V517z M62,517h-3v-1h3V517z"/>
			</g>
			<g>
				<polygon class="st1" points="57,517 55,517 55,515 56,515 56,516 57,516 				"/>
			</g>
			<g>
				<path class="st1" d="M56,511h-1v-4h1V511z M56,503h-1v-4h1V503z M56,495h-1v-4h1V495z M56,487h-1v-4h1V487z M56,479h-1v-4h1V479
					z M56,471h-1v-4h1V471z M56,463h-1v-4h1V463z M56,455h-1v-4h1V455z M56,447h-1v-4h1V447z M56,439h-1v-4h1V439z M56,431h-1v-4h1
					V431z"/>
			</g>
			<g>
				<polygon class="st1" points="56,422 55,422 55,419 57,419 57,420 56,420 				"/>
			</g>
			<g>
				<path class="st1" d="M208,420h-3v-1h3V420z M201,420h-4v-1h4V420z M193,420h-4v-1h4V420z M185,420h-4v-1h4V420z M177,420h-4v-1
					h4V420z M169,420h-4v-1h4V420z M161,420h-4v-1h4V420z M153,420h-4v-1h4V420z M145,420h-4v-1h4V420z M137,420h-4v-1h4V420z
					 M129,420h-4v-1h4V420z M121,420h-4v-1h4V420z M113,420h-4v-1h4V420z M105,420h-4v-1h4V420z M97,420h-4v-1h4V420z M89,420h-4v-1
					h4V420z M81,420h-4v-1h4V420z M73,420h-4v-1h4V420z M65,420h-4v-1h4V420z"/>
			</g>
			<g>
				<polygon class="st1" points="212,422 211,422 211,420 209,420 209,419 212,419 				"/>
			</g>
			<g>
				<path class="st1" d="M212,510h-1v-4h1V510z M212,502h-1v-4h1V502z M212,494h-1v-4h1V494z M212,486h-1v-4h1V486z M212,478h-1v-4
					h1V478z M212,470h-1v-4h1V470z M212,462h-1v-4h1V462z M212,454h-1v-4h1V454z M212,446h-1v-4h1V446z M212,438h-1v-4h1V438z
					 M212,430h-1v-4h1V430z"/>
			</g>
		</g>
		<g>
			<g>
				<polygon class="st1" points="100,431 97,431 97,430 99,430 99,429 100,429 				"/>
			</g>
			<g>
				<path class="st1" d="M93,431h-4v-1h4V431z M85,431h-4v-1h4V431z M77,431h-4v-1h4V431z"/>
			</g>
			<g>
				<polygon class="st1" points="68,431 66,431 66,429 67,429 67,430 68,430 				"/>
			</g>
			<g>
				<path class="st1" d="M67,425h-1v-4h1V425z M67,417h-1v-4h1V417z"/>
			</g>
			<g>
				<polygon class="st1" points="67,409 66,409 66,406 68,406 68,407 67,407 				"/>
			</g>
			<g>
				<path class="st1" d="M93,407h-4v-1h4V407z M85,407h-4v-1h4V407z M77,407h-4v-1h4V407z"/>
			</g>
			<g>
				<polygon class="st1" points="100,409 99,409 99,407 97,407 97,406 100,406 				"/>
			</g>
			<g>
				<path class="st1" d="M100,425h-1v-4h1V425z M100,417h-1v-4h1V417z"/>
			</g>
		</g>
		<g>
			<path class="st1" d="M183.1,449.6c-0.7,0-1.3-0.1-2-0.2l0.2-1c1.2,0.2,2.4,0.2,3.6,0l0.2,1C184.4,449.5,183.7,449.6,183.1,449.6z
				 M177.3,448c-1.2-0.7-2.2-1.5-3.1-2.6l0.8-0.6c0.8,0.9,1.7,1.7,2.8,2.3L177.3,448z M188.8,448l-0.5-0.9c1.1-0.6,2-1.4,2.8-2.3
				l0.8,0.6C191,446.5,190,447.3,188.8,448z M172.3,442c-0.5-1.3-0.7-2.6-0.7-3.9l1,0c0,1.2,0.2,2.4,0.6,3.6L172.3,442z M194.1,442
				l-1.1-0.3c0.4-1.1,0.8-2.4,0.8-3.6l1.2,0v0C195,439.4,194.5,440.7,194.1,442z M173.2,434.5l-0.9-0.3c0.5-1.3,1.1-2.4,2-3.5
				l0.8,0.6C174.2,432.3,173.6,433.3,173.2,434.5z M192.9,434.4c-0.4-1.1-1-2.2-1.8-3.1l0.8-0.6c0.9,1,1.5,2.2,2,3.4L192.9,434.4z
				 M177.8,429l-0.5-0.9c1.2-0.7,2.4-1.1,3.7-1.4l0.2,1C180,428,178.9,428.4,177.8,429z M188.3,429c-1.1-0.6-2.2-1-3.4-1.2l0.2-1
				c1.3,0.2,2.6,0.7,3.8,1.4L188.3,429z"/>
		</g>
		<g>
			<path class="st1" d="M133.5,499c-1.4,0-2.7,0.1-4.1-0.1l0.1-0.9c1.3,0.2,2.6,0.3,3.9,0.3L133.5,499L133.5,499
				C133.5,499,133.5,499,133.5,499z M137.6,499.1l-0.1-1c1.3-0.2,2.6-0.4,3.9-0.8l0.3,1C140.3,498.6,138.9,498.9,137.6,499.1z
				 M125.4,498.3c-1.3-0.4-2.6-0.8-3.9-1.3l0.4-0.9c1.2,0.5,2.5,0.9,3.8,1.3L125.4,498.3z M145.5,497l-0.4-0.9
				c1.2-0.5,2.4-1.1,3.5-1.8l0.5,0.9C148,495.8,146.7,496.4,145.5,497z M117.9,495.2c-1.2-0.7-2.3-1.4-3.4-2.3l0.6-0.8
				c1.1,0.8,2.2,1.5,3.3,2.2L117.9,495.2z M152.5,492.9l-0.6-0.8c1-0.8,2-1.7,3-2.6l0.7,0.7C154.6,491.1,153.6,492,152.5,492.9z
				 M111.4,490.2c-1-1-1.9-2-2.7-3.1l0.8-0.6c0.8,1,1.7,2,2.6,3L111.4,490.2z M158.3,487.1l-0.8-0.6c0.8-1,1.5-2.2,2.2-3.3l0.9,0.5
				C159.9,484.9,159.1,486,158.3,487.1z M106.4,483.7c-0.7-1.2-1.3-2.4-1.8-3.7l0.9-0.4c0.5,1.2,1.1,2.4,1.8,3.5L106.4,483.7z
				 M162.4,480l-0.9-0.4c0.5-1.2,0.9-2.5,1.3-3.8l1,0.3C163.4,477.5,162.9,478.8,162.4,480z M103.2,476.2c-0.4-1.3-0.6-2.7-0.8-4
				l1-0.1c0.2,1.3,0.4,2.6,0.8,3.9L103.2,476.2z M164.6,472.1l-0.9-0.1c0.2-1.3,0.3-2.6,0.3-4v0h1v0
				C165,469.4,164.8,470.8,164.6,472.1z M102.5,468.1l-0.3,0c0-1.4,0.1-2.7,0.3-4l1,0.1c-0.2,1.3-0.2,2.6-0.2,3.9L102.5,468.1z
				 M163.5,464c-0.2-1.3-0.4-2.6-0.8-3.9l1-0.3c0.4,1.3,0.6,2.7,0.8,4L163.5,464z M104.2,460.3l-1-0.3c0.3-1.3,0.8-2.6,1.3-3.9
				l0.9,0.4C104.9,457.7,104.5,459,104.2,460.3z M161.4,456.3c-0.5-1.2-1.1-2.4-1.8-3.5l0.9-0.5c0.7,1.2,1.3,2.4,1.8,3.7
				L161.4,456.3z M107.2,453l-0.9-0.5c0.7-1.2,1.4-2.3,2.3-3.4l0.8,0.6C108.6,450.7,107.8,451.8,107.2,453z M157.4,449.5
				c-0.8-1-1.7-2-2.6-3l0.7-0.7c1,1,1.9,2,2.7,3.1L157.4,449.5z M112,446.7l-0.7-0.7c1-1,2-1.9,3.1-2.7l0.6,0.8
				C113.9,444.9,112.9,445.7,112,446.7z M151.8,443.9c-1-0.8-2.2-1.5-3.3-2.2l0.5-0.9c1.2,0.7,2.3,1.4,3.4,2.3L151.8,443.9z
				 M118.2,441.8l-0.5-0.9c1.2-0.7,2.4-1.3,3.7-1.8l0.4,0.9C120.6,440.6,119.4,441.2,118.2,441.8z M145,440
				c-1.2-0.5-2.5-0.9-3.8-1.3l0.3-1c1.3,0.3,2.6,0.8,3.9,1.3L145,440z M125.5,438.8l-0.3-1c1.3-0.4,2.7-0.6,4-0.8l0.1,1
				C128.1,438.2,126.8,438.5,125.5,438.8z M137.3,438c-1.3-0.2-2.6-0.1-3.9-0.1l-0.1-0.9h0.1c1.3,0,2.7,0,4,0.1L137.3,438z"/>
		</g>
	</g>
	<g>
		<g>
			<g>
				<polygon class="st1" points="607,299 604,299 604,298 606,298 606,297 607,297 				"/>
			</g>
			<g>
				<path class="st1" d="M600,299h-4v-1h4V299z M592,299h-4v-1h4V299z M584,299h-4v-1h4V299z M576,299h-4v-1h4V299z M568,299h-4v-1
					h4V299z M560,299h-4v-1h4V299z M552,299h-4v-1h4V299z M544,299h-4v-1h4V299z M536,299h-4v-1h4V299z M528,299h-4v-1h4V299z
					 M520,299h-4v-1h4V299z M512,299h-4v-1h4V299z M504,299h-4v-1h4V299z M496,299h-4v-1h4V299z M488,299h-4v-1h4V299z M480,299h-4
					v-1h4V299z M472,299h-4v-1h4V299z M464,299h-4v-1h4V299z M456,299h-4v-1h4V299z M448,299h-4v-1h4V299z M440,299h-4v-1h4V299z
					 M432,299h-4v-1h4V299z M424,299h-4v-1h4V299z M416,299h-4v-1h4V299z M408,299h-4v-1h4V299z M400,299h-4v-1h4V299z M392,299h-4
					v-1h4V299z M384,299h-4v-1h4V299z M376,299h-4v-1h4V299z M368,299h-4v-1h4V299z M360,299h-4v-1h4V299z M352,299h-4v-1h4V299z
					 M344,299h-4v-1h4V299z M336,299h-4v-1h4V299z M328,299h-4v-1h4V299z M320,299h-4v-1h4V299z M312,299h-4v-1h4V299z M304,299h-4
					v-1h4V299z"/>
			</g>
			<g>
				<polygon class="st1" points="296,299 294,299 294,297 295,297 295,298 296,298 				"/>
			</g>
			<g>
				<path class="st1" d="M295,293h-1v-4h1V293z M295,285h-1v-4h1V285z M295,277h-1v-4h1V277z M295,269h-1v-4h1V269z M295,261h-1v-4
					h1V261z M295,253h-1v-4h1V253z M295,245h-1v-4h1V245z M295,237h-1v-4h1V237z M295,229h-1v-4h1V229z M295,221h-1v-4h1V221z
					 M295,213h-1v-4h1V213z M295,205h-1v-4h1V205z M295,197h-1v-4h1V197z M295,189h-1v-4h1V189z M295,181h-1v-4h1V181z M295,173h-1
					v-4h1V173z M295,165h-1v-4h1V165z M295,157h-1v-4h1V157z M295,149h-1v-4h1V149z M295,141h-1v-4h1V141z M295,133h-1v-4h1V133z
					 M295,125h-1v-4h1V125z M295,117h-1v-4h1V117z"/>
			</g>
			<g>
				<polygon class="st1" points="295,107 294,107 294,104 296,104 296,105 295,105 				"/>
			</g>
			<g>
				<path class="st1" d="M600,105h-4v-1h4V105z M592,105h-4v-1h4V105z M584,105h-4v-1h4V105z M576,105h-4v-1h4V105z M568,105h-4v-1
					h4V105z M560,105h-4v-1h4V105z M552,105h-4v-1h4V105z M544,105h-4v-1h4V105z M536,105h-4v-1h4V105z M528,105h-4v-1h4V105z
					 M520,105h-4v-1h4V105z M512,105h-4v-1h4V105z M504,105h-4v-1h4V105z M496,105h-4v-1h4V105z M488,105h-4v-1h4V105z M480,105h-4
					v-1h4V105z M472,105h-4v-1h4V105z M464,105h-4v-1h4V105z M456,105h-4v-1h4V105z M448,105h-4v-1h4V105z M440,105h-4v-1h4V105z
					 M432,105h-4v-1h4V105z M424,105h-4v-1h4V105z M416,105h-4v-1h4V105z M408,105h-4v-1h4V105z M400,105h-4v-1h4V105z M392,105h-4
					v-1h4V105z M384,105h-4v-1h4V105z M376,105h-4v-1h4V105z M368,105h-4v-1h4V105z M360,105h-4v-1h4V105z M352,105h-4v-1h4V105z
					 M344,105h-4v-1h4V105z M336,105h-4v-1h4V105z M328,105h-4v-1h4V105z M320,105h-4v-1h4V105z M312,105h-4v-1h4V105z M304,105h-4
					v-1h4V105z"/>
			</g>
			<g>
				<polygon class="st1" points="607,107 606,107 606,105 604,105 604,104 607,104 				"/>
			</g>
			<g>
				<path class="st1" d="M607,291h-1v-4h1V291z M607,283h-1v-4h1V283z M607,275h-1v-4h1V275z M607,267h-1v-4h1V267z M607,259h-1v-4
					h1V259z M607,251h-1v-4h1V251z M607,243h-1v-4h1V243z M607,235h-1v-4h1V235z M607,227h-1v-4h1V227z M607,219h-1v-4h1V219z
					 M607,211h-1v-4h1V211z M607,203h-1v-4h1V203z M607,195h-1v-4h1V195z M607,187h-1v-4h1V187z M607,179h-1v-4h1V179z M607,171h-1
					v-4h1V171z M607,163h-1v-4h1V163z M607,155h-1v-4h1V155z M607,147h-1v-4h1V147z M607,139h-1v-4h1V139z M607,131h-1v-4h1V131z
					 M607,123h-1v-4h1V123z M607,115h-1v-4h1V115z"/>
			</g>
		</g>
		<g>
			<g>
				<polygon class="st1" points="382,127 380,127 380,126 381,126 381,124 382,124 				"/>
			</g>
			<g>
				<path class="st1" d="M376,127h-4v-1h4V127z M368,127h-4v-1h4V127z M360,127h-4v-1h4V127z M352,127h-4v-1h4V127z M344,127h-4v-1
					h4V127z M336,127h-4v-1h4V127z M328,127h-4v-1h4V127z"/>
			</g>
			<g>
				<polygon class="st1" points="318,127 315,127 315,124 316,124 316,126 318,126 				"/>
			</g>
			<g>
				<path class="st1" d="M316,120h-1v-4h1V120z M316,112h-1v-4h1V112z M316,104h-1v-4h1V104z M316,96h-1v-4h1V96z M316,88h-1v-4h1
					V88z"/>
			</g>
			<g>
				<polygon class="st1" points="316,80 315,80 315,78 318,78 318,79 316,79 				"/>
			</g>
			<g>
				<path class="st1" d="M374,79h-4v-1h4V79z M366,79h-4v-1h4V79z M358,79h-4v-1h4V79z M350,79h-4v-1h4V79z M342,79h-4v-1h4V79z
					 M334,79h-4v-1h4V79z M326,79h-4v-1h4V79z"/>
			</g>
			<g>
				<polygon class="st1" points="382,80 381,80 381,79 380,79 380,78 382,78 				"/>
			</g>
			<g>
				<path class="st1" d="M382,120h-1v-4h1V120z M382,112h-1v-4h1V112z M382,104h-1v-4h1V104z M382,96h-1v-4h1V96z M382,88h-1v-4h1
					V88z"/>
			</g>
		</g>
		<g>
			<path class="st1" d="M549.1,163.2c-0.7,0-1.4,0-2-0.1l0.1-1c1.3,0.1,2.7,0.1,4,0l0.1,1C550.5,163.1,549.8,163.2,549.1,163.2z
				 M543,162.3c-1.3-0.4-2.6-0.9-3.9-1.5l0.4-0.9c1.2,0.6,2.4,1.1,3.7,1.4L543,162.3z M555.3,162.3l-0.3-1c1.3-0.4,2.5-0.8,3.7-1.4
				l0.4,0.9C557.9,161.4,556.6,161.9,555.3,162.3z M535.6,158.6c-1.1-0.8-2.1-1.8-3.1-2.8l0.7-0.7c0.9,1,1.9,1.9,2.9,2.7
				L535.6,158.6z M562.7,158.6l-0.6-0.8c1.1-0.8,2-1.7,2.9-2.7l0.7,0.7C564.8,156.8,563.8,157.8,562.7,158.6z M530,152.6
				c-0.7-1.2-1.4-2.4-1.9-3.7l0.9-0.4c0.5,1.2,1.1,2.4,1.8,3.5L530,152.6z M568.3,152.5l-0.8-0.5c0.7-1.1,1.3-2.3,1.8-3.5l0.9,0.4
				C569.6,150.1,569,151.3,568.3,152.5z M527,144.9c-0.3-1.4-0.4-2.7-0.4-4.1l1,0c0,1.3,0.1,2.7,0.4,3.9L527,144.9z M571.4,144.8
				l-1.1-0.2c0.2-1.3,0.5-2.6,0.5-3.9l1.1-0.1v0.1C572,142.1,571.7,143.5,571.4,144.8z M528,136.8l-1-0.2c0.3-1.4,0.6-2.7,1.1-4
				l0.9,0.4C528.6,134.2,528.2,135.5,528,136.8z M570.2,136.6c-0.2-1.3-0.6-2.6-1.1-3.8l0.9-0.4c0.5,1.3,0.9,2.6,1.1,4L570.2,136.6z
				 M530.8,129.4l-0.9-0.5c0.7-1.2,1.6-2.3,2.5-3.3l0.7,0.7C532.3,127.2,531.5,128.3,530.8,129.4z M567.4,129.3
				c-0.7-1.1-1.5-2.2-2.4-3.2l0.7-0.7c0.9,1,1.8,2.1,2.5,3.3L567.4,129.3z M536.1,123.6l-0.6-0.8c1.1-0.8,2.3-1.6,3.5-2.2l0.4,0.9
				C538.3,122.1,537.2,122.8,536.1,123.6z M562,123.5c-1.1-0.8-2.2-1.5-3.4-2.1l0.4-0.9c1.2,0.6,2.4,1.3,3.5,2.2L562,123.5z
				 M543.2,120l-0.3-1c1.3-0.4,2.7-0.6,4.1-0.8l0.1,1C545.8,119.4,544.5,119.7,543.2,120z M554.9,120c-1.3-0.4-2.6-0.6-3.9-0.7
				l0.1-1c1.4,0.1,2.8,0.4,4.1,0.7L554.9,120z"/>
		</g>
		<g>
			<path class="st1" d="M449.9,263c-1.3,0-2.7-0.2-4-0.3l0.1-1.1c1.3,0.1,2.6,0.1,3.9,0.1l0,0.8L449.9,263
				C449.9,263,449.9,263,449.9,263z M454.1,262.6l-0.1-1c1.3-0.1,2.7-0.2,4-0.4l0.1,1C456.8,262.4,455.4,262.5,454.1,262.6z
				 M441.9,262.2c-1.3-0.2-2.7-0.4-4-0.7l0.2-1c1.3,0.3,2.6,0.5,3.9,0.6L441.9,262.2z M462.1,261.6l-0.2-1c1.3-0.3,2.6-0.6,3.9-0.9
				l0.3,1C464.8,261,463.4,261.3,462.1,261.6z M433.9,260.7c-1.3-0.3-2.6-0.7-3.9-1.2l0.3-0.9c1.3,0.4,2.5,0.8,3.8,1.2L433.9,260.7z
				 M469.9,259.5l-0.3-0.9c1.3-0.4,2.5-0.9,3.7-1.4l0.4,0.9C472.5,258.5,471.2,259,469.9,259.5z M426.2,258.1
				c-1.2-0.5-2.5-1.1-3.7-1.7l0.4-0.9c1.2,0.6,2.4,1.1,3.6,1.6L426.2,258.1z M477.4,256.3l-0.4-0.9c1.2-0.6,2.4-1.2,3.5-1.9l0.5,0.9
				C479.8,255.1,478.6,255.7,477.4,256.3z M418.9,254.5c-1.2-0.7-2.3-1.4-3.5-2.1l0.6-0.8c1.1,0.7,2.2,1.4,3.4,2.1L418.9,254.5z
				 M484.5,252.3l-0.6-0.8c1.1-0.7,2.2-1.5,3.2-2.3l0.6,0.8C486.7,250.7,485.6,251.5,484.5,252.3z M412.2,250
				c-1.1-0.8-2.1-1.7-3.1-2.6l0.7-0.8c1,0.9,2,1.7,3.1,2.5L412.2,250z M490.9,247.3l-0.7-0.8c1-0.9,2-1.8,2.9-2.7l0.7,0.7
				C492.9,245.5,491.9,246.4,490.9,247.3z M406.1,244.6c-1-1-1.9-1.9-2.8-3l0.8-0.7c0.9,1,1.8,2,2.7,2.9L406.1,244.6z M496.6,241.6
				l-0.8-0.7c0.9-1,1.7-2,2.5-3.1l0.8,0.6C498.4,239.5,497.5,240.6,496.6,241.6z M400.7,238.5c-0.8-1.1-1.6-2.2-2.4-3.3l0.8-0.6
				c0.7,1.1,1.5,2.2,2.3,3.2L400.7,238.5z M501.6,235.1l-0.8-0.6c0.7-1.1,1.4-2.2,2.1-3.4l0.9,0.5
				C503.1,232.9,502.3,234,501.6,235.1z M396.2,231.8c-0.7-1.2-1.3-2.4-1.9-3.6l0.9-0.4c0.6,1.2,1.2,2.4,1.9,3.5L396.2,231.8z
				 M505.7,228.1l-0.9-0.4c0.6-1.2,1.1-2.4,1.7-3.6l0.9,0.4C506.8,225.7,506.2,226.9,505.7,228.1z M392.6,224.5
				c-0.5-1.2-1-2.5-1.4-3.8l0.9-0.3c0.4,1.3,0.9,2.5,1.4,3.7L392.6,224.5z M508.8,220.6l-0.9-0.3c0.4-1.3,0.8-2.5,1.2-3.8l1,0.3
				C509.6,218,509.2,219.3,508.8,220.6z M390,216.8c-0.4-1.3-0.7-2.6-0.9-4l1-0.2c0.3,1.3,0.6,2.6,0.9,3.9L390,216.8z M510.9,212.8
				l-1-0.2c0.3-1.3,0.5-2.6,0.6-3.9l1,0.1C511.3,210.1,511.1,211.4,510.9,212.8z M388.4,208.9c-0.2-1.3-0.3-2.7-0.4-4l1-0.1
				c0.1,1.3,0.2,2.7,0.4,4L388.4,208.9z M511.9,204.7l-1-0.1c0.1-1.3,0.1-2.7,0.1-4V200h1v0.6C512,202,512,203.4,511.9,204.7z
				 M389,201h-1v-0.4c0-1.3,0-2.6,0-3.9l1,0.1c-0.1,1.3-0.1,2.6-0.1,3.9V201z M510.9,196.4c-0.1-1.3-0.2-2.7-0.4-4l1-0.1
				c0.2,1.3,0.3,2.7,0.4,4L510.9,196.4z M389.3,192.8l-1-0.1c0.2-1.3,0.4-2.7,0.6-4l1,0.2C389.7,190.1,389.5,191.5,389.3,192.8z
				 M509.8,188.5c-0.3-1.3-0.6-2.6-0.9-3.9l1-0.3c0.4,1.3,0.7,2.6,0.9,4L509.8,188.5z M390.9,185l-1-0.3c0.3-1.3,0.7-2.6,1.2-3.9
				l0.9,0.3C391.6,182.4,391.2,183.7,390.9,185z M507.7,180.8c-0.4-1.2-0.9-2.5-1.4-3.7l0.9-0.4c0.5,1.2,1,2.5,1.4,3.8L507.7,180.8z
				 M393.4,177.4l-0.9-0.4c0.5-1.2,1.1-2.5,1.7-3.7l0.9,0.4C394.5,174.9,393.9,176.1,393.4,177.4z M504.7,173.4
				c-0.6-1.2-1.2-2.4-1.9-3.5l0.9-0.5c0.7,1.2,1.3,2.4,1.9,3.6L504.7,173.4z M397,170.2l-0.9-0.5c0.7-1.2,1.4-2.3,2.1-3.5l0.8,0.6
				C398.3,167.9,397.6,169,397,170.2z M500.6,166.5c-0.7-1.1-1.5-2.2-2.3-3.2l0.8-0.6c0.8,1.1,1.6,2.2,2.4,3.3L500.6,166.5z
				 M401.4,163.5l-0.8-0.6c0.8-1.1,1.7-2.1,2.6-3.1l0.8,0.7C403,161.5,402.2,162.5,401.4,163.5z M495.8,160.2c-0.9-1-1.8-2-2.7-2.9
				l0.7-0.7c1,1,1.9,1.9,2.8,3L495.8,160.2z M406.6,157.5l-0.7-0.7c1-1,1.9-1.9,3-2.8l0.7,0.8C408.6,155.7,407.6,156.6,406.6,157.5z
				 M490.1,154.6c-1-0.9-2-1.7-3.1-2.5l0.6-0.8c1.1,0.8,2.1,1.7,3.1,2.6L490.1,154.6z M412.6,152.2l-0.6-0.8
				c1.1-0.8,2.2-1.6,3.3-2.4l0.6,0.8C414.8,150.7,413.7,151.4,412.6,152.2z M483.7,149.7c-1.1-0.7-2.2-1.4-3.4-2.1l0.5-0.9
				c1.2,0.7,2.3,1.4,3.5,2.1L483.7,149.7z M419.3,147.8l-0.5-0.9c1.2-0.7,2.4-1.3,3.6-1.9l0.4,0.9
				C421.6,146.5,420.4,147.1,419.3,147.8z M476.8,145.8c-1.2-0.6-2.4-1.1-3.6-1.6l0.4-0.9c1.2,0.5,2.5,1.1,3.7,1.7L476.8,145.8z
				 M426.4,144.2l-0.4-0.9c1.2-0.5,2.5-1,3.8-1.4l0.3,0.9C428.9,143.3,427.6,143.7,426.4,144.2z M469.4,142.7
				c-1.3-0.4-2.5-0.8-3.8-1.1l0.3-1c1.3,0.3,2.6,0.7,3.9,1.2L469.4,142.7z M434,141.7l-0.3-1c1.3-0.4,2.6-0.7,4-0.9l0.2,1
				C436.5,141,435.2,141.3,434,141.7z M461.7,140.7c-1.3-0.3-2.6-0.5-3.9-0.6l0.1-1c1.3,0.2,2.7,0.4,4,0.6L461.7,140.7z
				 M441.8,140.1l-0.1-1c1.3-0.2,2.7-0.3,4-0.4l0.1,1C444.4,139.8,443.1,139.9,441.8,140.1z M453.8,139.9c-1.3-0.1-2.6,0.1-3.8,0.1
				h0.1v-1h-0.1c1.3,0,2.6-0.1,3.9,0L453.8,139.9z"/>
		</g>
	</g>
	<g>
		<g>
			<path class="st2" d="M521.5,419.5v-13h-33v13h-11v97h156v-97H521.5z M555.5,498.8c-17,0-30.8-13.8-30.8-30.8
				c0-17,13.8-30.8,30.8-30.8s30.8,13.8,30.8,30.8C586.3,485.1,572.5,498.8,555.5,498.8z M605.1,449.1c-6.1,0-11-4.9-11-11
				s4.9-11,11-11c6.1,0,11,4.9,11,11S611.2,449.1,605.1,449.1z"/>
		</g>
	</g>
	<g>
		<g>
			<path class="st3" d="M732.5,419.5v-13h-33v13h-11v97h156v-97H732.5z M766.5,498.8c-17,0-30.8-13.8-30.8-30.8
				c0-17,13.8-30.8,30.8-30.8s30.8,13.8,30.8,30.8C797.3,485.1,783.5,498.8,766.5,498.8z M816.1,449.1c-6.1,0-11-4.9-11-11
				s4.9-11,11-11c6.1,0,11,4.9,11,11S822.2,449.1,816.1,449.1z"/>
		</g>
	</g>
	<g>
		<g>
			<g>
				<path class="st0" d="M133.2,562.5c-0.1,0-0.1,0-0.1-0.1v-9.8c-0.6,0.4-1.6,0.7-2.1,0.9c-0.1,0-0.1,0-0.1-0.1v-1
					c0-0.1,0-0.1,0.1-0.1c0.9-0.3,1.9-0.7,2.5-1.1c0.1-0.1,0.2-0.1,0.3-0.1h0.9c0.1,0,0.1,0,0.1,0.1v11.3c0,0.1,0,0.1-0.1,0.1H133.2
					z"/>
			</g>
		</g>
		<g>
			<g>
				<path class="st0" d="M133.5,540.4c9.3,0,16.8,7.5,16.8,16.8s-7.5,16.8-16.8,16.8s-16.8-7.5-16.8-16.8S124.2,540.4,133.5,540.4
					 M133.5,538.4c-10.4,0-18.8,8.4-18.8,18.8s8.4,18.8,18.8,18.8s18.8-8.4,18.8-18.8S143.9,538.4,133.5,538.4L133.5,538.4z"/>
			</g>
		</g>
	</g>
	<g>
		<g>
			<g>
				<path class="st0" d="M341.1,562.5c-0.1,0-0.1-0.1-0.1-0.1v-0.8c0-0.1,0-0.1,0.1-0.2c0.8-0.6,2.1-1.7,3.3-2.9
					c1.7-1.7,2.1-2.8,2.1-3.9c0-1.3-0.7-2.3-2.4-2.3c-1.1,0-1.9,0.3-2.7,0.8c-0.1,0.1-0.1,0-0.1-0.1v-1.2c0-0.1,0-0.1,0.1-0.2
					c0.8-0.5,1.9-0.8,3-0.8c2.5,0,3.6,1.7,3.6,3.6c0,1.4-0.5,2.7-2.1,4.4c-1.1,1.1-2,1.9-2.7,2.5c0.6-0.1,1.2-0.1,2.8-0.1h2.5
					c0.1,0,0.1,0,0.1,0.1l-0.3,1.1c0,0.1-0.1,0.1-0.1,0.1H341.1z"/>
			</g>
		</g>
		<g>
			<g>
				<path class="st0" d="M344.5,540.4c9.3,0,16.8,7.5,16.8,16.8s-7.5,16.8-16.8,16.8s-16.8-7.5-16.8-16.8S335.2,540.4,344.5,540.4
					 M344.5,538.4c-10.4,0-18.8,8.4-18.8,18.8s8.4,18.8,18.8,18.8s18.8-8.4,18.8-18.8S354.9,538.4,344.5,538.4L344.5,538.4z"/>
			</g>
		</g>
	</g>
	<g>
		<g>
			<g>
				<path class="st0" d="M554,557.2c-0.1,0-0.1,0-0.1-0.1v-1.1c0-0.1,0-0.1,0.1-0.1h0.7c1.6,0,2.6-0.6,2.6-1.8c0-1-0.7-1.8-2.3-1.8
					c-0.9,0-1.7,0.2-2.6,0.7c-0.1,0-0.1,0-0.1-0.1v-1.2c0-0.1,0-0.1,0.1-0.2c0.8-0.4,1.8-0.7,2.9-0.7c2.3,0,3.5,1.2,3.5,3
					c0,1.4-1.1,2.2-1.9,2.5c1,0.2,2.5,1,2.5,2.9c0,2.2-1.8,3.5-4.2,3.5c-1.2,0-2.2-0.2-2.9-0.6c-0.1,0-0.1-0.1-0.1-0.2v-1.2
					c0-0.1,0.1-0.1,0.1-0.1c0.9,0.5,1.8,0.8,2.9,0.8c1.9,0,2.7-1,2.7-2.1c0-1.4-1.2-2.1-3-2.1H554z"/>
			</g>
		</g>
		<g>
			<g>
				<path class="st0" d="M555.3,540.4c9.3,0,16.8,7.5,16.8,16.8s-7.5,16.8-16.8,16.8s-16.8-7.5-16.8-16.8S546,540.4,555.3,540.4
					 M555.3,538.4c-10.4,0-18.8,8.4-18.8,18.8s8.4,18.8,18.8,18.8s18.8-8.4,18.8-18.8S565.7,538.4,555.3,538.4L555.3,538.4z"/>
			</g>
		</g>
	</g>
	<g>
		<g>
			<g>
				<path class="st0" d="M762.2,559.6c-0.1,0-0.1,0-0.1-0.1v-1c0-0.1,0-0.1,0.1-0.2l4.9-7.1c0.1-0.1,0.1-0.1,0.2-0.1h1.5
					c0.1,0,0.1,0,0.1,0.1v7.1h1.5c0.1,0,0.1,0,0.1,0.1l-0.2,1.1c0,0.1-0.1,0.1-0.1,0.1h-1.2v2.9c0,0.1,0,0.1-0.1,0.1h-1.2
					c-0.1,0-0.1-0.1-0.1-0.1v-2.9H762.2z M767.5,556.1c0-1.8,0.1-3,0.1-3.6h0c-0.4,0.8-3.3,5-3.8,5.9h3.8V556.1z"/>
			</g>
		</g>
		<g>
			<g>
				<path class="st0" d="M766.5,540.4c9.3,0,16.8,7.5,16.8,16.8s-7.5,16.8-16.8,16.8s-16.8-7.5-16.8-16.8S757.3,540.4,766.5,540.4
					 M766.5,538.4c-10.4,0-18.8,8.4-18.8,18.8s8.4,18.8,18.8,18.8c10.4,0,18.8-8.4,18.8-18.8S776.9,538.4,766.5,538.4L766.5,538.4z"
					/>
			</g>
		</g>
	</g>
	<g class="st4">
		<g>
			<path class="st1" d="M873.8,377h-847c-0.3,0-0.5-0.2-0.5-0.5s0.2-0.5,0.5-0.5h847c0.3,0,0.5,0.2,0.5,0.5S874,377,873.8,377z"/>
		</g>
	</g>
</g>
<g id="Working_Layer">
	<linearGradient id="SVGID_1_" gradientUnits="userSpaceOnUse" x1="294" y1="188" x2="606" y2="188">
		<stop  offset="0" style="stop-color:#CCE0F4"/>
		<stop  offset="6.405089e-02" style="stop-color:#C3DCF2"/>
		<stop  offset="0.1706" style="stop-color:#A9D2EE"/>
		<stop  offset="0.3066" style="stop-color:#80C2E7"/>
		<stop  offset="0.4649" style="stop-color:#47ACDE"/>
		<stop  offset="0.5674" style="stop-color:#1E9CD7"/>
		<stop  offset="0.8652" style="stop-color:#0075BE"/>
		<stop  offset="0.9944" style="stop-color:#005B97"/>
	</linearGradient>
	<path class="st5" d="M380,104V78h-65v26h-21v194h312V104H380z M441,257c-23.2,0-42-18.8-42-42s18.8-42,42-42s42,18.8,42,42
		S464.2,257,441,257z M574.1,148c-10.2,0-18.5-8.3-18.5-18.5c0-10.2,8.3-18.5,18.5-18.5c10.2,0,18.5,8.3,18.5,18.5
		C592.6,139.7,584.3,148,574.1,148z"/>
</g>
</svg>
